<svg id="Hangman" xmlns="http://www.w3.org/2000/svg" width="171.5" height="410" viewBox="0 0 171.5 410">
  <defs>
    <style>
      .cls-1, .cls-4 {
        fill: none;
      }

      .cls-1, .cls-2, .cls-3, .cls-4 {
        stroke: #000;
        stroke-linecap: round;
        stroke-miterlimit: 10;
      }

      .cls-1 {
        stroke-width: 8px;
      }

      .cls-2, .cls-3 {
        fill: #fff;
      }

      .cls-3, .cls-4 {
        stroke-width: 3px;
      }
    </style>
  </defs>
  <title>hangman</title>
  <line class="cls-1" x1="137.5" y1="406" x2="167.5" y2="406"/>
  <line class="cls-1" x1="155.5" y1="4" x2="155.5" y2="404"/>
  <g>
    <line class="cls-1" x1="47.5" y1="4" x2="155.5" y2="4"/>
    <line class="cls-1" x1="106.5" y1="4" x2="156" y2="53.5"/>
  </g>
  <g>
    <line class="cls-2" x1="47.5" y1="4" x2="47.5" y2="51.5"/>
    <circle class="cls-3" cx="48.5" cy="84" r="32"/>
  </g>
  <line class="cls-4" x1="48.5" y1="116" x2="48.5" y2="288"/>
  <line class="cls-4" x1="1.5" y1="196" x2="48.5" y2="116"/>
  <line class="cls-4" x1="95.5" y1="196" x2="48.5" y2="116"/>
  <line class="cls-4" x1="1.5" y1="368" x2="48.5" y2="288"/>
  <g>
    <line class="cls-4" x1="95.5" y1="368" x2="48.5" y2="288"/>
    <polyline class="cls-4" points="33.5 72 43.5 78 33.5 84"/>
    <polyline class="cls-4" points="63.5 72 53.5 78 63.5 84"/>
    <path class="cls-4" d="M130.72,134.31c5-5,7-6,12-6s7,4,10,6" transform="translate(-94.22 -32.31)"/>
    <line class="cls-4" x1="47.5" y1="96" x2="47.67" y2="100.63"/>
    <path class="cls-4" d="M141.89,137.75c5.28,0,4.62-5.45,5.28-8.14" transform="translate(-94.22 -32.31)"/>
    <path class="cls-4" d="M136.72,129.44s1,8.31,5.17,8.31c3,0,4.62-5.45,5.28-8.14" transform="translate(-94.22 -32.31)"/>
  </g>
</svg>
